<svg id="Layer_1" height="512" viewBox="0 0 512 512" width="512" xmlns="http://www.w3.org/2000/svg" data-name="Layer 1"><path d="m445.97 36h-379.11a29.9 29.9 0 0 0 -29.86 30.03v379.11a29.76 29.76 0 0 0 29.86 29.86h379.11a29.9 29.9 0 0 0 30.03-29.86v-379.11a30.049 30.049 0 0 0 -30.03-30.03z" fill="#978cac"/><path d="m67 445.14v-379.11a29.9 29.9 0 0 1 29.86-30.03h-30a29.9 29.9 0 0 0 -29.86 30.03v379.11a29.76 29.76 0 0 0 29.86 29.86h30a29.76 29.76 0 0 1 -29.86-29.86z" fill="#766f84"/><g fill="#7d8595"><path d="m475.97 81v25h-.97-145v59h-25v-84h170z"/><path d="m438 297v24h-26v154.14h-24v-154.14h-25v-24z"/><path d="m411 148v88h-81v136h-164v-57h-129.14v-25h153.14v57h115v-135h81v-64z"/><path d="m335 414v25h-251v-84h24v59z"/><path d="m261 36.03v.97 208h-175v-69h24v44h126v-183-.97z"/><path d="m181 97v75h-25v-33h-119.14v-24h119.14v-18z"/></g><path d="m37 290h30v25h-30z" fill="#606772"/><path d="m37 115h30v24h-30z" fill="#606772"/><path d="m335 408h-221v-53a6 6 0 0 0 -6-6h-24a6 6 0 0 0 -6 6v84a6 6 0 0 0 6 6h251a6 6 0 0 0 6-6v-25a6 6 0 0 0 -6-6zm-6 25h-239v-72h12v53a6 6 0 0 0 6 6h221z" fill="#284268"/><path d="m446 30h-379a36 36 0 0 0 -36 36v379a36 36 0 0 0 36 36h379a36 36 0 0 0 36-36v-379a36 36 0 0 0 -36-36zm-204 190v-178h13v197h-163v-57h12v38a6 6 0 0 0 6 6h126a6 6 0 0 0 6-6zm-199-99h113a6 6 0 0 0 6-6v-12h13v63h-13v-27a6 6 0 0 0 -6-6h-113zm0 175h141v51a6 6 0 0 0 6 6h115a6 6 0 0 0 6-6v-129h75a6 6 0 0 0 6-6v-58h13v76h-75a6 6 0 0 0 -6 6v130h-152v-51a6 6 0 0 0 -6-6h-123zm363 25v148h-12v-148a6 6 0 0 0 -6-6h-19v-12h63v12h-20a6 6 0 0 0 -6 6zm64-221h-140a6 6 0 0 0 -6 6v53h-13v-72h159zm0-25h-165a6 6 0 0 0 -6 6v84a6 6 0 0 0 6 6h25a6 6 0 0 0 6-6v-53h134v333a24 24 0 0 1 -24 24h-28v-142h20a6 6 0 0 0 6-6v-24a6 6 0 0 0 -6-6h-75a6 6 0 0 0 -6 6v24a6 6 0 0 0 6 6h19v142h-315a24 24 0 0 1 -24-24v-124h117v51a6 6 0 0 0 6 6h164a6 6 0 0 0 6-6v-130h75a6 6 0 0 0 6-6v-88a6 6 0 0 0 -6-6h-25a6 6 0 0 0 -6 6v58h-75a6 6 0 0 0 -6 6v129h-103v-51a6 6 0 0 0 -6-6h-147v-139h107v27a6 6 0 0 0 6 6h25a6 6 0 0 0 6-6v-75a6 6 0 0 0 -6-6h-25a6 6 0 0 0 -6 6v12h-107v-43a24 24 0 0 1 24-24h163v172h-114v-38a6 6 0 0 0 -6-6h-24a6 6 0 0 0 -6 6v69a6 6 0 0 0 6 6h175a6 6 0 0 0 6-6v-203h179a24 24 0 0 1 24 24z" fill="#284268"/><path d="m68 62h-5a6 6 0 0 0 0 12h5a6 6 0 0 0 0-12z" fill="#284268"/><path d="m154 62h-67a6 6 0 0 0 0 12h67a6 6 0 0 0 0-12z" fill="#284268"/></svg>